# xmcd CD database file
#
# Track frame offsets:
#	182
#	19970
#	41192
#	64935
#	86610
#	105662
#	128115
#	149317
#
# Disc length: 2305 seconds
#
# Revision: 2
# Processed by: cddbd v1.5.2PL0 Copyright (c) Steve Scherf et al.
# Submitted via: CDex 1.70beta2
#
DISCID=7008ff08
DTITLE=Akwatik -  
DYEAR=1992
DGENRE=Zouk
TTITLE0=Solision
TTITLE1=O Vwa
TTITLE2=Dabitid
TTITLE3=Nuit
TTITLE4=Interdi
TTITLE5=Soufrans
TTITLE6=Egenia
TTITLE7=Dabitid (remix)
EXTD=YEAR: 1992
EXTT0=
EXTT1=
EXTT2=
EXTT3=
EXTT4=
EXTT5=
EXTT6=
EXTT7=
PLAYORDER=
